<?xml version="1.0" encoding="UTF-8"?>
<svg id="Calque_1" data-name="Calque 1" xmlns="http://www.w3.org/2000/svg" xmlns:xlink="http://www.w3.org/1999/xlink" viewBox="0 0 351.5 134.93">
  <defs>
    <style>
      .cls-1 {
        fill: #5057a3;
      }

      .cls-2 {
        fill: none;
      }

      .cls-3 {
        fill: #ffd23d;
      }

      .cls-4 {
        clip-path: url(#clippath);
      }
    </style>
    <clipPath id="clippath">
      <rect class="cls-2" x="-42.52" y="-42.38" width="436.54" height="612.28"/>
    </clipPath>
  </defs>
  <g class="cls-4">
    <path class="cls-3" d="M325.89,104.41c-2.3-.03-4.47-.21-6.71-.67-8.29-1.7-16.15-1.93-23.88-1.93-3.09,0-6.16.04-9.23.04-1.12,0-2.23,0-3.35-.02h0c-2.8-.02-5.75-.4-8.92-.41-1.81,0-3.7.13-5.65.58h0c-2.28.53-4.26,1.36-6.09,2.03-1.84.68-3.52,1.19-5.24,1.29h0l-1.61.1c-.46,0-.9-.32-1.03-.76l-.42-2.29c-.08-1.74-.53-3.22-.9-4.5-.41-1.37-.71-2.5-.71-3.49v-.35c.06-.74.09-1.47.09-2.19-.02-5.44-1.23-10.41-1.21-15.09,0-1.2.07-2.37.25-3.54,1.05-6.96,2.21-13.71,2.21-20.83,0-3.25-.24-6.57-.86-10v-.02s0-.02,0-.02c-.05-.23-.07-.48-.07-.73,0-.7.19-1.44.58-2.07l.15-.25.09-.28c.12-.38.16-.67.19-.97.03-.29.04-.58.04-.88,0-1.59-.25-3.71-.49-5.86-.24-2.11-.46-4.25-.46-5.37,0-.21,0-.38.02-.47v-.03c.15-.45.55-.7.93-.7l.3.05h0c2.38.9,4.81,1.2,7.14,1.2,1.51,0,2.98-.12,4.4-.3h.02c3.91-.52,7.74-.76,11.58-.76,4.48,0,8.97.33,13.57.94,4.05.53,8.04.72,11.99.72,7.89,0,15.61-.77,23.28-1.24l1.39-.04h0c.57,0,1.04.46,1.04,1.01v.22s0,.02,0,.02l-.52,2.23v.23c-.44,10.54-.19,20.96-.83,31.25l-.02.32.06.31c1.28,6.27,1.08,12.89,1.14,19.7.07,6.7.42,13.61,3.01,20.41l.29,1.62v.03s.01.03.01.03l.02.18c0,.16-.04.33-.17.54l-.39.58-.02.03-.03.04c-.1.16-.27.29-.47.37h-4.49ZM336.15,101.75h0l-.32-1.79-.04-.23-.08-.22c-2.33-5.95-2.71-12.31-2.77-18.98-.07-6.55.16-13.38-1.18-20.27.62-10.4.4-20.68.8-30.84l.47-2.01v-.09c.09-.49.07-.83.08-1.05v-.04c-.06-3.2-2.68-5.73-5.85-5.73h-.13s0,0,0,0l-1.43.04h-.04s-.05,0-.05,0c-7.81.48-15.44,1.24-23.03,1.24-3.79,0-7.57-.19-11.37-.68-4.78-.63-9.48-.98-14.2-.98-4.04,0-8.08.25-12.21.8h.02c-1.29.16-2.57.26-3.81.26-1.95,0-3.8-.25-5.51-.91h-.04s-.05-.03-.05-.03c-.61-.21-1.23-.31-1.85-.31-2.46,0-4.7,1.59-5.5,4.03h0s0,.02,0,.03c0,0,0,.02-.01.03h0c-.12.38-.16.68-.19.98-.03.31-.04.62-.04.94,0,1.62.25,3.76.49,5.9.24,2.12.46,4.24.46,5.32,0,.15,0,.27-.01.36-.69,1.3-1.04,2.71-1.04,4.09,0,.54.05,1.08.15,1.61h0c.56,3.12.78,6.15.78,9.16,0,6.58-1.09,13.09-2.16,20.11-.22,1.45-.3,2.87-.3,4.26.02,5.44,1.23,10.41,1.21,15.09,0,.62-.02,1.24-.06,1.85-.02.23-.02.46-.02.69,0,1.89.5,3.48.9,4.85.41,1.37.73,2.52.73,3.52v.2s.52,2.85.52,2.85l.03.1c.72,2.58,3.06,4.3,5.68,4.3h.15l1.76-.11c2.48-.15,4.63-.86,6.59-1.57,1.96-.72,3.75-1.45,5.52-1.85,1.49-.34,3-.46,4.58-.46,2.76,0,5.7.38,8.88.41,1.14.01,2.28.02,3.41.02,3.11,0,6.18-.04,9.23-.04,7.64,0,15.13.24,22.91,1.84,2.62.54,5.12.73,7.62.77h5.28l.29-.07c1.43-.36,2.68-1.24,3.49-2.51h0s.43-.64.43-.64l.02-.03.02-.04c.56-.9.89-1.97.89-3.08,0-.36-.04-.73-.11-1.09"/>
    <polyline class="cls-3" points="263.17 102.21 263.18 102.21 263.17 102.21 263.17 102.21"/>
    <path class="cls-1" d="M251.06,38.28c-.86,1.4-1.11,3.05-.82,4.52,1.86,10.43.18,19.87-1.36,30.05-1.08,7.1,1.36,13.95.86,21.01-.21,3.08,1.58,5.81,1.61,8.86l.47,2.54c.43,1.54,1.86,2.58,3.44,2.55l1.69-.11c4.19-.25,7.67-2.44,11.72-3.37,4.73-1.08,9.32-.14,14.02-.11,12.05.14,23.6-.68,36,1.86,2.44.5,4.77.68,7.17.72h4.95c.86-.22,1.61-.75,2.08-1.51l.43-.64c.47-.75.64-1.61.47-2.48l-.32-1.79c-5.02-12.84-1.43-26.71-4.13-39.98.65-10.43.4-20.87.82-31.3l.5-2.15c.03-.22.03-.47.03-.68-.03-1.9-1.61-3.41-3.51-3.37l-1.44.04c-11.62.72-23.09,2.08-34.85.54-8.71-1.15-17.07-1.33-25.78-.18-3.48.43-7.1.5-10.47-.79-1.79-.61-3.73.4-4.3,2.22-.61,1.79,1.29,11.76.72,13.55"/>
    <path class="cls-3" d="M289.64,96.81c0-.15-.01-.31-.03-.46-.24-1.77-1.75-3.01-3.45-3.01-.15,0-.31.01-.47.03h-.05s-.05.02-.05.02c-1.89.51-3.82.81-5.7.81-2.99,0-5.84-.74-8.32-2.58l-.05-.04-.06-.03c-.51-.27-1.07-.4-1.61-.4-1.26,0-2.46.69-3.08,1.88h0s0,0,0,0c0,0,0,0,0,0h0c-.27.51-.4,1.06-.4,1.6,0,1.23.66,2.4,1.8,3.03,3.43,2.52,7.47,3.54,11.51,3.54,2.38,0,4.77-.35,7.06-.95h0c1.71-.29,2.93-1.76,2.93-3.44"/>
    <path class="cls-3" d="M287.14,103.37h0c-.64-1.16-1.82-1.82-3.05-1.82-.55,0-1.11.14-1.63.41h0c-2.43,1.08-5.27,1.9-7.97,1.9-2.34,0-4.54-.6-6.41-2.13h0c-.65-.54-1.44-.8-2.22-.8-1,0-2.01.44-2.69,1.28-.52.65-.79,1.43-.78,2.2,0,1.01.45,2.01,1.28,2.69h0s0,0,0,0c0,0,0,0,0,0h0c3.12,2.62,7.03,3.7,10.95,3.7,3.87,0,7.77-1.04,11.09-2.7h.02s.02-.02.02-.02c1.16-.64,1.8-1.83,1.8-3.05,0-.57-.14-1.14-.43-1.67"/>
    <path class="cls-3" d="M275.17,113.46h0s-.79-.3-.79-.3l-.05-.02h-.05c-.39-.11-.72-.19-.97-.3-.25-.11-.4-.22-.53-.4l-.12-.17-.19-.1c-.51-.27-1.07-.4-1.61-.4s-1.04.13-1.51.36c-.49-.26-1.04-.4-1.6-.4-.45,0-.91.09-1.35.28h0s0,0,0,0c0,0,0,0,0,0h0c-1.33.55-2.13,1.83-2.13,3.18,0,.46.09.92.28,1.37h0s0,.03,0,.03c.32.67.54,1.48.87,2.33.16.43.36.88.63,1.33,0,.01.02.02.02.03.26.4.53.81.8,1.22.55.55,1.26.9,2.02,1.01h.02s.42.06.42.06h.01s.44.03.44.03c.46,0,.92-.09,1.36-.28h0s.83-.35.83-.35h0c1.05-.34,1.96-.89,2.79-1.47l.03-.02,1.35-1.1h0c.45-.38.77-.86.99-1.38h0s0-.01,0-.01c.16-.41.24-.84.24-1.26,0-1.39-.83-2.71-2.2-3.24"/>
    <path class="cls-3" d="M278.44,21.51c-.03-.13-.04-.31-.04-.53-.01-1.05.44-2.85.98-4.65.52-1.82,1.12-3.63,1.25-5.27v-.08s0-.08,0-.08c0-.42-.15-.91-.43-1.27-.43-.55-.95-.76-1.34-.86-.4-.1-.76-.12-1.11-.13-1.04,0-2.14.22-3.16.42-.5.1-.97.2-1.35.26-.37.07-.69.11-.73.1-2.31.05-4.14,1.93-4.16,4.21h0s0,0,0,.01c0,0,0,.02,0,.03v.05c0,.2-.02.41-.02.61.01,3.34,1.14,6.22,1.81,8.88h0c.43,1.97,2.16,3.34,4.13,3.34.27,0,.54-.02.8-.07h0c2.03-.39,3.44-2.16,3.44-4.16,0-.27-.02-.53-.08-.8h0Z"/>
    <path class="cls-3" d="M331.64,19.63c.34-.38.56-.94.54-1.41-.02-.69-.26-1.11-.47-1.45-.39-.59-.85-1.02-1.37-1.48-.77-.67-1.68-1.33-2.46-1.9-.39-.28-.74-.54-1.02-.76-.28-.21-.49-.39-.51-.41h0c-.83-.85-1.95-1.29-3.06-1.29-1.06,0-2.12.4-2.95,1.17l-.04.04-.03.03c-1.41,1.49-2.45,3.12-3.41,4.68-.96,1.56-1.86,3.06-2.91,4.34l-.04.05-.04.05c-.53.74-.79,1.62-.79,2.47,0,1.31.62,2.63,1.79,3.45h0s0,0,0,0c0,0,0,0,0,0h0c.74.52,1.61.78,2.45.77,1.29,0,2.57-.59,3.39-1.72h0c.29-.37.93-.88,1.79-1.37,1.29-.75,3.02-1.49,4.67-2.29,1.61-.8,3.16-1.6,4.32-2.87h0s.03-.04.05-.05c.02-.02.04-.03.05-.05h0Z"/>
    <path class="cls-3" d="M342.99,55.31v-.24c-.04-.51-.14-1.12-.29-1.87-.23-1.11-.57-2.42-1.04-3.57-.24-.58-.5-1.12-.89-1.63-.2-.25-.43-.51-.76-.74-.33-.23-.8-.43-1.35-.43h-.21s-.1.02-.1.02l-.1.02c-1.9.46-3.49,1.65-5.01,2.85-1.5,1.21-2.91,2.5-3.98,3.23h0c-1.29.78-2.05,2.16-2.04,3.58,0,.71.19,1.44.56,2.09h0s0,.01.01.02c0,0,0,.01.01.02h0c.76,1.35,2.18,2.15,3.65,2.14.65,0,1.31-.16,1.92-.48.68-.29,1.51-.39,2.51-.45,1-.06,2.15-.07,3.4-.36h0c2.1-.29,3.7-2.07,3.7-4.21"/>
    <path class="cls-3" d="M327.86,91.59h-.01s-.01-.03-.01-.03c-.78-.92-1.76-1.6-2.82-2.24-1.59-.95-3.39-1.78-4.93-2.62-1.55-.82-2.81-1.7-3.25-2.34h0c-.83-1.14-2.13-1.76-3.45-1.75-.85,0-1.73.26-2.47.8-1.15.83-1.77,2.14-1.77,3.45,0,.86.26,1.73.8,2.48l.02.03.02.03c2.08,2.62,3.69,5.89,6.3,8.77,0,0,0,0,0,0,.03.03.05.06.07.09h0c.84.97,2.03,1.48,3.22,1.48.93,0,1.89-.31,2.67-.94h.01s0-.01,0-.01c.1-.09.57-.41,1.12-.77.83-.55,1.9-1.24,2.83-1.97.46-.37.89-.74,1.27-1.17.19-.22.37-.45.53-.75.15-.3.31-.67.31-1.19,0-.45-.17-.99-.48-1.36"/>
    <path class="cls-3" d="M253.35,44.68h0c-3.64-.57-7.29-1.28-11.18-1.49-.33-.08-.67-.13-1-.13-1.79,0-3.44,1.14-4.03,2.93h0s0,0,0,.01c0,0,0,0,0,0h0c-.19.6-.36,1.41-.52,2.41-.15,1-.27,2.13-.27,3.19,0,.69.04,1.34.22,2,.09.33.21.68.46,1.04.24.36.66.76,1.24.94l.15.05.16.02c.35.04.69.06,1.04.06,2.29-.01,4.55-.74,6.72-1.4,2.15-.67,4.21-1.26,5.72-1.25.28,0,.54.02.78.05l.13.02h.13c2.35,0,4.25-1.9,4.25-4.25,0-2.26-1.76-4.08-3.98-4.22"/>
    <path class="cls-3" d="M317.84,40.99c-2.62-4.15-6.03-7.86-10.06-10.58-4.03-2.72-8.71-4.45-13.77-4.55-.18,0-.36,0-.55,0-6.92,0-13.87,2.41-19.49,6.56-5.61,4.15-9.91,10.09-11.31,17.18l-.04.21v.22c.41,7.95,2.75,15.45,5.71,22.61.3.73.49,1.5.48,2.02,0,.31-.05.51-.12.65h0c-.81,1.66-.95,3.27-1.17,4.56-.11.65-.22,1.23-.39,1.71-.17.49-.38.9-.69,1.28l-.07.09-.06.1c-.44.71-.66,1.51-.66,2.3,0,1.46.74,2.89,2.07,3.72.71.44,1.52.66,2.31.66,1.42,0,2.81-.7,3.66-1.96h0s.02-.03.03-.05c.01-.02.03-.03.04-.05h0c.88-1.26,1.32-2.59,1.64-3.82.32-1.26.54-2.43.86-3.38.56-1.65,1.18-3.52,1.19-5.59,0-.65-.07-1.32-.22-1.99-.94-4.03-2.4-7.72-3.59-11.3-1.2-3.58-2.11-7.03-2.11-10.62,0-.19,0-.38,0-.56h0c.03-1.02.32-2.05.81-3.09.49-1.04,1.18-2.07,1.95-3.08,4.64-5.86,11.32-9.7,18.56-9.7.4,0,.8.01,1.2.04,3.44.21,6.53,1.58,9.36,3.66,2.76,2.02,5.22,4.71,7.37,7.48,1.21,3.49,2.57,6.71,2.55,9.87,0,.45-.03.91-.08,1.36-.65,4.99-3.14,8.84-6.67,12.23-3.52,3.38-8.06,6.21-12.49,8.96h0c-1.4.88-2.3,2.04-3.02,3.05-.45.64-.85,1.21-1.25,1.7l-.24.14c-1.41.8-2.2,2.27-2.2,3.78,0,.74.19,1.49.59,2.17h0s0,0,0,.01c0,0,0,0,0,.01h0c.8,1.39,2.27,2.18,3.77,2.18.73,0,1.47-.19,2.14-.57h0c.07-.03.22-.1.46-.22.22-.11.53-.28.84-.54h0s.03-.02.04-.04c0,0,.02-.01.03-.02h0c.81-.69,1.3-1.46,1.69-2.04.4-.61.7-1,.96-1.2h0c4.91-3.8,10.59-7.43,15.26-11.93,2.33-2.26,4.41-4.74,5.97-7.61,1.56-2.86,2.59-6.11,2.82-9.78.04-.6.06-1.2.06-1.8,0-5.1-1.43-10.08-4.2-14.47"/>
  </g>
  <g>
    <path class="cls-3" d="M20.54,71.31c.44,2.16,3.12,5.02,6.73,5.02,2.42,0,4.44-.97,5.63-3.12h6.16c-1.58,4.93-6.6,8.49-11.79,8.49-7.35,0-12.89-5.72-12.89-12.94s5.41-13.11,12.85-13.11,12.63,5.59,12.63,12.72c0,.92-.13,1.89-.35,2.95h-18.97ZM33.88,66.6c-.57-3.52-2.99-5.59-6.65-5.59-3.21,0-5.94,1.85-6.86,5.59h13.51ZM24.11,53.45l-2.33-4.05,9.77-5.94,2.51,4.49-9.95,5.5Z"/>
    <path class="cls-3" d="M43.56,80.91v-32.56h5.85v32.56h-5.85Z"/>
    <path class="cls-3" d="M59.26,71.31c.44,2.16,3.12,5.02,6.73,5.02,2.42,0,4.44-.97,5.63-3.12h6.16c-1.58,4.93-6.6,8.49-11.79,8.49-7.35,0-12.89-5.72-12.89-12.94s5.41-13.11,12.85-13.11,12.63,5.59,12.63,12.72c0,.92-.13,1.89-.35,2.95h-18.97ZM72.6,66.6c-.57-3.52-2.99-5.59-6.65-5.59-3.21,0-5.94,1.85-6.86,5.59h13.51Z"/>
    <path class="cls-3" d="M106.74,72.94c-2.07,5.59-6.65,8.76-12.23,8.76-7.22,0-12.98-5.94-12.98-13.11s5.76-12.94,12.94-12.94c5.5,0,10.39,3.3,12.28,8.93h-6.6c-1.28-2.29-2.99-3.56-5.68-3.56-4.14,0-7.08,3.3-7.08,7.66s3.17,7.66,7.35,7.66c2.42,0,4.18-1.41,5.41-3.39h6.6Z"/>
    <path class="cls-3" d="M111.84,80.91v-19.23h-2.86v-5.19h2.86v-8.14h5.85v8.14h3.52v5.19h-3.52v19.23h-5.85Z"/>
    <path class="cls-3" d="M124.03,80.91v-24.42h5.37v2.16h.09c1.54-2.29,2.82-2.99,5.59-2.99h.13v5.68c-3.52.13-5.33,2.02-5.33,5.68v13.91h-5.85Z"/>
    <path class="cls-3" d="M137.67,53.71v-5.37h5.85v5.37h-5.85ZM137.67,80.91v-24.42h5.85v24.42h-5.85Z"/>
    <path class="cls-3" d="M172.74,72.94c-2.07,5.59-6.65,8.76-12.23,8.76-7.22,0-12.98-5.94-12.98-13.11s5.76-12.94,12.94-12.94c5.5,0,10.39,3.3,12.28,8.93h-6.6c-1.28-2.29-2.99-3.56-5.68-3.56-4.14,0-7.08,3.3-7.08,7.66s3.17,7.66,7.35,7.66c2.42,0,4.18-1.41,5.41-3.39h6.6Z"/>
    <path class="cls-3" d="M175.16,68.72c0-7.04,5.68-13.07,13.03-13.07s12.94,5.94,12.94,12.98-5.46,13.07-12.94,13.07-13.03-5.94-13.03-12.98ZM195.27,68.76c0-4-2.99-7.75-7.13-7.75-3.92,0-7.13,3.61-7.13,7.7s2.99,7.61,7.17,7.61,7.08-3.52,7.08-7.57Z"/>
    <path class="cls-3" d="M204.29,89.05v-32.56h5.37v2.86h.09c2.07-2.6,4.71-3.7,7.92-3.7,7.17,0,12.23,6.03,12.23,12.94s-5.32,13.11-12.23,13.11c-3.12,0-5.19-.84-7.53-3.12v10.47h-5.85ZM224.04,68.67c0-3.96-2.95-7.66-7.08-7.66s-7.17,3.43-7.17,7.66c0,5.15,4.05,7.66,7.13,7.66,4,0,7.13-3.61,7.13-7.66Z"/>
  </g>
</svg>